<?xml version="1.0" encoding="UTF-8"?>
<svg width="422px" height="422px" viewBox="0 0 422 422" version="1.1" xmlns="http://www.w3.org/2000/svg" xmlns:xlink="http://www.w3.org/1999/xlink">
    <title>Gatsby-icon Copy 2</title>
    <g id="Gatsby-icon-Copy-2" stroke="none" stroke-width="1" fill="none" fill-rule="evenodd">
        <g id="book" transform="translate(50.000000, 0.000000)">
            <path d="M290.867647,0 C299.20976,0.265426377 305.911357,6.97492623 306.176471,15.3268765 L306.176471,15.3268765 L306.176471,67.4382567 L331.691176,67.4382567 C340.145913,67.4382567 347,74.3004266 347,82.7651332 L347,82.7651332 L347,406.673123 C347,415.13783 340.145913,422 331.691176,422 L331.691176,422 L48.9882353,422 C21.9326804,422 0,400.041455 0,372.953995 L0,372.953995 L0,49.0460048 C0,21.9585446 21.9326804,0 48.9882353,0 L48.9882353,0 Z M275.558824,30.653753 L48.9882353,30.653753 C38.842153,30.653753 30.6176471,38.8879578 30.6176471,49.0460048 C30.6176471,59.2040519 38.842153,67.4382567 48.9882353,67.4382567 L48.9882353,67.4382567 L275.558824,67.4382567 L275.558824,30.653753 Z" id="Combined-Shape" fill="#000000" fill-rule="nonzero"></path>
            <line x1="35.4353312" y1="93.5" x2="310.564669" y2="93.5" id="Line" stroke="#FFFFFF" stroke-width="8" stroke-linecap="square"></line>
            <line x1="34.4353312" y1="386.5" x2="309.564669" y2="386.5" id="Line" stroke="#FFFFFF" stroke-width="8" stroke-linecap="square"></line>
            <line x1="310" y1="387" x2="310.5" y2="93.4349112" id="Line" stroke="#FFFFFF" stroke-width="8" stroke-linecap="square"></line>
            <line x1="34" y1="387" x2="34.5" y2="93.4349112" id="Line" stroke="#FFFFFF" stroke-width="8" stroke-linecap="square"></line>
            <path d="M235.812721,346.227433 C232.62753,344.934888 231.469278,342.780645 231.469278,337.610463 C231.469278,333.014745 229.297557,331.434967 226.401928,334.020058 C221.624141,338.184927 191.364821,340.051938 174.280611,337.466847 C164.869818,335.887069 150.536456,331.7222 144.88998,328.562644 C143.586947,327.844563 139.243504,325.833936 135.334405,323.966926 C131.425307,322.099916 126.357956,318.94036 124.041453,316.786117 C121.72495,314.631875 118.68454,312.621248 117.381507,312.046784 C110.866343,310.036157 95.3747293,290.79159 89.7282533,278.00975 C81.4757115,258.908799 79.5935529,229.611099 85.2400288,210.940996 C86.977406,205.339966 89.0043461,200.744248 89.7282533,200.744248 C90.4521605,200.744248 91.0312862,199.738935 91.0312862,198.590005 C91.0312862,194.999601 99.283828,180.207135 103.916834,175.324185 C106.378118,172.739094 108.405058,170.154003 108.405058,169.292306 C108.405058,168.574225 110.57678,166.707214 113.182846,164.98382 C115.788912,163.404042 119.408447,160.531719 121.290606,158.521093 C123.172765,156.510466 125.199705,155.21792 125.923612,155.648769 C126.502738,155.936001 127.516208,155.505153 128.240115,154.49984 C129.977492,151.771132 150.246893,142.148849 156.617276,140.999919 C159.512905,140.569071 162.408534,139.420141 162.842878,138.70206 C163.422004,137.840363 164.290692,137.983979 165.014599,139.132909 C165.883288,140.569071 166.317632,140.712687 166.317632,139.420141 C166.317632,138.271212 168.344572,137.553131 171.240201,137.553131 C173.991048,137.553131 176.741896,136.83505 177.321021,135.973353 C177.900147,134.96804 180.940557,134.680807 186.442252,135.398888 C190.930476,135.973353 196.142608,136.547818 198.169548,136.691434 C200.196488,136.83505 202.802554,137.553131 203.960805,138.271212 C205.119057,138.989293 207.43556,139.707374 209.028156,139.707374 C210.620751,139.707374 212.647692,140.138222 213.371599,140.569071 C214.52985,141.430768 216.701572,142.005232 225.678021,144.015859 C234.509688,146.026485 239.432257,146.313718 242.327886,144.73394 C247.250455,142.148849 250.290865,143.872243 250.435646,149.329657 C250.435646,151.914748 250.580428,178.052892 250.725209,207.494208 L251.014772,260.919425 L256.516466,265.802375 C267.664637,276.14274 265.782478,276.573588 212.647692,276.717205 C187.600503,276.717205 166.317632,276.286356 165.304162,275.711891 C162.553315,273.988497 161.539845,267.525769 163.711567,265.802375 C166.607195,263.504516 173.411923,262.642819 174.13583,264.50983 C174.570174,265.658759 174.859737,265.658759 174.859737,264.50983 C175.004519,263.073668 194.550012,263.073668 201.499521,264.50983 C202.802554,264.797062 203.960805,264.653446 203.960805,264.078981 C203.960805,263.504516 205.263838,263.073668 206.856434,263.073668 C208.44903,263.073668 209.752063,263.504516 209.752063,264.078981 C209.752063,265.515143 215.977665,263.791749 217.859823,261.924739 C219.886763,259.770496 220.465889,246.84504 220.465889,201.893177 C220.610671,166.707214 220.465889,164.840204 217.57026,160.962567 C211.199877,152.632829 188.469192,149.473273 170.661075,154.643456 C143.152603,162.398729 129.108804,177.622044 121.290606,207.925057 C118.539759,218.69627 118.250196,222.717523 118.974103,243.11102 C119.69801,267.669386 122.448858,280.020377 129.398366,291.796903 C134.610498,300.413873 149.522986,314.775491 155.603806,316.929734 C158.644216,318.078663 161.974189,319.802057 163.132441,320.950986 C164.145911,321.9563 166.896758,322.961613 168.923698,322.961613 C190.785695,323.82331 202.36821,323.679694 201.644303,322.674381 C200.920395,321.525451 202.078647,321.094603 204.829494,321.525451 C205.40862,321.525451 206.277308,321.094603 206.711653,320.376522 C208.159467,318.509511 214.52985,315.206339 213.371599,316.929734 C212.937254,317.791431 213.226817,318.509511 213.950725,318.509511 C214.819413,318.509511 215.54332,317.935047 215.54332,317.07335 C215.54332,316.355269 216.267227,315.637188 217.280698,315.637188 C218.149386,315.637188 222.058485,312.477632 225.967584,308.456379 C231.61406,302.711732 232.772311,300.701106 232.048404,297.828782 C230.311027,290.504357 236.247065,286.195872 243.196574,289.786276 C245.80264,291.222438 245.947422,293.089449 245.947422,316.355269 C245.947422,339.621089 245.657859,341.775332 243.051793,344.360423 C240.011383,347.376363 239.432257,347.519979 235.812721,346.227433 Z" id="Path" fill="#FFFFFF" fill-rule="nonzero" transform="translate(172.000000, 241.000000) scale(1, -1) translate(-172.000000, -241.000000) "></path>
        </g>
    </g>
</svg>